#tb 0: 1/30
#media_type 0: video
#codec_id 0: rawvideo
#dimensions 0: 1440x1080
#sar 0: 1/1
0,          0,          0,        1,  2332800, 0x009dacb8
0,          1,          1,        1,  2332800, 0xb1e50764
0,          2,          2,        1,  2332800, 0xe29481e0
0,          3,          3,        1,  2332800, 0x0b1b4de4
0,          4,          4,        1,  2332800, 0x726a644c
0,          5,          5,        1,  2332800, 0x7a09c4a5
0,          6,          6,        1,  2332800, 0x2e9059ea
0,          7,          7,        1,  2332800, 0x52071fdc
0,          8,          8,        1,  2332800, 0x4fa00417
0,          9,          9,        1,  2332800, 0x6037fb4d
0,         10,         10,        1,  2332800, 0x887ffae2
0,         11,         11,        1,  2332800, 0x887ffae2
0,         12,         12,        1,  2332800, 0x887ffae2
0,         13,         13,        1,  2332800, 0x887ffae2
0,         14,         14,        1,  2332800, 0x887ffae2
0,         15,         15,        1,  2332800, 0x887ffae2
0,         16,         16,        1,  2332800, 0x887ffae2
0,         17,         17,        1,  2332800, 0x887ffae2
0,         18,         18,        1,  2332800, 0x887ffae2
0,         19,         19,        1,  2332800, 0x887ffae2
0,         20,         20,        1,  2332800, 0x887ffae2
0,         21,         21,        1,  2332800, 0x887ffae2
0,         22,         22,        1,  2332800, 0x887ffae2
0,         23,         23,        1,  2332800, 0x887ffae2
0,         24,         24,        1,  2332800, 0x887ffae2
0,         25,         25,        1,  2332800, 0x887ffae2
0,         26,         26,        1,  2332800, 0x887ffae2
0,         27,         27,        1,  2332800, 0x887ffae2
0,         28,         28,        1,  2332800, 0x887ffae2
0,         29,         29,        1,  2332800, 0x824bb91b
